G75*
%MOIN*%
%OFA0B0*%
%FSLAX25Y25*%
%IPPOS*%
%LPD*%
%AMOC8*
5,1,8,0,0,1.08239X$1,22.5*
%
%ADD10R,0.07400X0.07400*%
%ADD11C,0.07400*%
%ADD12C,0.09000*%
%ADD13C,0.07000*%
%ADD14R,0.06600X0.06600*%
%ADD15OC8,0.06600*%
%ADD16R,0.12268X0.12268*%
%ADD17C,0.08500*%
%ADD18OC8,0.05200*%
D10*
X0208220Y0033333D03*
D11*
X0218220Y0033333D03*
X0228220Y0033333D03*
X0238220Y0033333D03*
X0248220Y0033333D03*
X0258220Y0033333D03*
X0268220Y0033333D03*
X0278220Y0033333D03*
X0288220Y0033333D03*
X0298220Y0033333D03*
X0308220Y0033333D03*
X0318220Y0033333D03*
X0328220Y0033333D03*
X0338220Y0033333D03*
X0348220Y0033333D03*
X0358220Y0033333D03*
X0368220Y0033333D03*
X0378220Y0033333D03*
X0388220Y0033333D03*
X0398220Y0033333D03*
X0408220Y0033333D03*
X0418220Y0033333D03*
X0428220Y0033333D03*
X0438220Y0033333D03*
X0448220Y0033333D03*
X0458220Y0033333D03*
X0468220Y0033333D03*
X0478220Y0033333D03*
X0488220Y0033333D03*
X0498220Y0033333D03*
X0508220Y0033333D03*
X0518220Y0033333D03*
X0528220Y0033333D03*
X0538220Y0033333D03*
X0548220Y0033333D03*
X0558220Y0033333D03*
X0568220Y0033333D03*
X0578220Y0033333D03*
X0588220Y0033333D03*
X0598220Y0033333D03*
X0587120Y0070533D03*
X0569320Y0070533D03*
X0537120Y0070533D03*
X0519320Y0070533D03*
X0487120Y0070533D03*
X0469320Y0070533D03*
X0469320Y0096133D03*
X0487120Y0096133D03*
X0519320Y0096133D03*
X0537120Y0096133D03*
X0569320Y0096133D03*
X0587120Y0096133D03*
X0558220Y0118333D03*
X0548220Y0118333D03*
X0508220Y0118333D03*
X0498220Y0118333D03*
X0458220Y0118333D03*
X0448220Y0118333D03*
X0438220Y0123333D03*
X0438220Y0133333D03*
X0215220Y0156333D03*
X0205220Y0156333D03*
X0163220Y0138333D03*
X0153220Y0138333D03*
D12*
X0056970Y0058333D03*
X0109470Y0058333D03*
X0109470Y0118333D03*
X0056970Y0118333D03*
D13*
X0073220Y0128333D03*
X0083220Y0128333D03*
X0093220Y0128333D03*
X0113220Y0100833D03*
X0133220Y0100833D03*
X0133220Y0075833D03*
X0113220Y0075833D03*
X0043220Y0078333D03*
X0043220Y0088333D03*
X0043220Y0098333D03*
D14*
X0073378Y0060774D03*
X0188378Y0060774D03*
X0293378Y0060774D03*
X0398378Y0060774D03*
X0403378Y0165774D03*
X0328378Y0165774D03*
X0228378Y0165774D03*
D15*
X0238220Y0165774D03*
X0248063Y0165774D03*
X0338220Y0165774D03*
X0348063Y0165774D03*
X0413220Y0165774D03*
X0423063Y0165774D03*
X0418063Y0060774D03*
X0408220Y0060774D03*
X0313063Y0060774D03*
X0303220Y0060774D03*
X0208063Y0060774D03*
X0198220Y0060774D03*
X0093063Y0060774D03*
X0083220Y0060774D03*
D16*
X0065504Y0088333D03*
X0100937Y0088333D03*
X0180504Y0088333D03*
X0215937Y0088333D03*
X0285504Y0088333D03*
X0320937Y0088333D03*
X0390504Y0088333D03*
X0425937Y0088333D03*
X0430937Y0193333D03*
X0395504Y0193333D03*
X0355937Y0193333D03*
X0320504Y0193333D03*
X0255937Y0193333D03*
X0220504Y0193333D03*
D17*
X0468378Y0107940D03*
X0488063Y0107940D03*
X0518378Y0107940D03*
X0538063Y0107940D03*
X0568378Y0107940D03*
X0588063Y0107940D03*
X0588063Y0058727D03*
X0568378Y0058727D03*
X0538063Y0058727D03*
X0518378Y0058727D03*
X0488063Y0058727D03*
X0468378Y0058727D03*
D18*
X0393220Y0128333D03*
X0363220Y0128333D03*
X0363220Y0138333D03*
X0363220Y0148333D03*
X0393220Y0148333D03*
X0393220Y0138333D03*
X0393220Y0158333D03*
X0363220Y0158333D03*
M02*
