G75*
%MOIN*%
%OFA0B0*%
%FSLAX25Y25*%
%IPPOS*%
%LPD*%
%AMOC8*
5,1,8,0,0,1.08239X$1,22.5*
%
%ADD10C,0.02400*%
%ADD11C,0.00800*%
%ADD12C,0.00900*%
%ADD13C,0.00500*%
%ADD14C,0.00400*%
D10*
X0555436Y0190840D02*
X0555436Y0204200D01*
X0564343Y0204200D02*
X0555436Y0190840D01*
X0564343Y0190840D02*
X0564343Y0204200D01*
X0569557Y0204200D02*
X0574010Y0204200D01*
X0571783Y0204200D02*
X0571783Y0190840D01*
X0569557Y0190840D02*
X0574010Y0190840D01*
D11*
X0207522Y0041536D02*
X0206120Y0040135D01*
X0207522Y0038733D01*
X0210324Y0038733D01*
X0210324Y0041536D02*
X0207522Y0041536D01*
X0206120Y0043337D02*
X0206120Y0045439D01*
X0206821Y0046140D01*
X0209623Y0046140D01*
X0210324Y0045439D01*
X0210324Y0043337D01*
X0206120Y0043337D01*
X0216120Y0043337D02*
X0216120Y0045439D01*
X0216821Y0046140D01*
X0217522Y0046140D01*
X0218222Y0045439D01*
X0218222Y0043337D01*
X0218222Y0041536D02*
X0217522Y0040835D01*
X0217522Y0038733D01*
X0216120Y0038733D02*
X0220324Y0038733D01*
X0220324Y0040835D01*
X0219623Y0041536D01*
X0218222Y0041536D01*
X0216120Y0043337D02*
X0220324Y0043337D01*
X0220324Y0045439D01*
X0219623Y0046140D01*
X0218923Y0046140D01*
X0218222Y0045439D01*
X0218222Y0047941D02*
X0218222Y0050043D01*
X0217522Y0050744D01*
X0216821Y0050744D01*
X0216120Y0050043D01*
X0216120Y0048642D01*
X0216821Y0047941D01*
X0218222Y0047941D01*
X0219623Y0049342D01*
X0220324Y0050744D01*
X0226120Y0047941D02*
X0226821Y0047941D01*
X0229623Y0050744D01*
X0230324Y0050744D01*
X0230324Y0047941D01*
X0229623Y0046140D02*
X0228923Y0046140D01*
X0228222Y0045439D01*
X0228222Y0043337D01*
X0228222Y0041536D02*
X0227522Y0040835D01*
X0227522Y0038733D01*
X0226120Y0038733D02*
X0230324Y0038733D01*
X0230324Y0040835D01*
X0229623Y0041536D01*
X0228222Y0041536D01*
X0226120Y0043337D02*
X0226120Y0045439D01*
X0226821Y0046140D01*
X0227522Y0046140D01*
X0228222Y0045439D01*
X0229623Y0046140D02*
X0230324Y0045439D01*
X0230324Y0043337D01*
X0226120Y0043337D01*
X0236120Y0043337D02*
X0236120Y0045439D01*
X0236821Y0046140D01*
X0237522Y0046140D01*
X0238222Y0045439D01*
X0238222Y0043337D01*
X0238222Y0041536D02*
X0237522Y0040835D01*
X0237522Y0038733D01*
X0236120Y0038733D02*
X0240324Y0038733D01*
X0240324Y0040835D01*
X0239623Y0041536D01*
X0238222Y0041536D01*
X0236120Y0043337D02*
X0240324Y0043337D01*
X0240324Y0045439D01*
X0239623Y0046140D01*
X0238923Y0046140D01*
X0238222Y0045439D01*
X0237522Y0047941D02*
X0238222Y0048642D01*
X0238222Y0050043D01*
X0237522Y0050744D01*
X0236821Y0050744D01*
X0236120Y0050043D01*
X0236120Y0048642D01*
X0236821Y0047941D01*
X0237522Y0047941D01*
X0238222Y0048642D02*
X0238923Y0047941D01*
X0239623Y0047941D01*
X0240324Y0048642D01*
X0240324Y0050043D01*
X0239623Y0050744D01*
X0238923Y0050744D01*
X0238222Y0050043D01*
X0246120Y0050043D02*
X0246120Y0048642D01*
X0246821Y0047941D01*
X0248222Y0048642D02*
X0248222Y0050744D01*
X0246821Y0050744D02*
X0249623Y0050744D01*
X0250324Y0050043D01*
X0250324Y0048642D01*
X0249623Y0047941D01*
X0248923Y0047941D01*
X0248222Y0048642D01*
X0246120Y0050043D02*
X0246821Y0050744D01*
X0256120Y0050043D02*
X0256120Y0047941D01*
X0260324Y0047941D01*
X0260324Y0050043D01*
X0259623Y0050744D01*
X0256821Y0050744D01*
X0256120Y0050043D01*
X0256120Y0046140D02*
X0260324Y0046140D01*
X0260324Y0043337D02*
X0256120Y0043337D01*
X0256821Y0041536D02*
X0256120Y0040835D01*
X0256120Y0039434D01*
X0256821Y0038733D01*
X0259623Y0038733D01*
X0260324Y0039434D01*
X0260324Y0040835D01*
X0259623Y0041536D01*
X0258222Y0041536D02*
X0258222Y0040135D01*
X0258222Y0041536D02*
X0256821Y0041536D01*
X0260324Y0043337D02*
X0256120Y0046140D01*
X0250324Y0045439D02*
X0249623Y0046140D01*
X0248923Y0046140D01*
X0248222Y0045439D01*
X0248222Y0043337D01*
X0248222Y0041536D02*
X0247522Y0040835D01*
X0247522Y0038733D01*
X0246120Y0038733D02*
X0250324Y0038733D01*
X0250324Y0040835D01*
X0249623Y0041536D01*
X0248222Y0041536D01*
X0246120Y0043337D02*
X0246120Y0045439D01*
X0246821Y0046140D01*
X0247522Y0046140D01*
X0248222Y0045439D01*
X0250324Y0045439D02*
X0250324Y0043337D01*
X0246120Y0043337D01*
X0266120Y0043337D02*
X0266120Y0045439D01*
X0266821Y0046140D01*
X0269623Y0046140D01*
X0270324Y0045439D01*
X0270324Y0043337D01*
X0266120Y0043337D01*
X0267522Y0041536D02*
X0270324Y0041536D01*
X0267522Y0041536D02*
X0266120Y0040135D01*
X0267522Y0038733D01*
X0270324Y0038733D01*
X0276120Y0038733D02*
X0280324Y0038733D01*
X0280324Y0040835D01*
X0279623Y0041536D01*
X0278222Y0041536D01*
X0277522Y0040835D01*
X0277522Y0038733D01*
X0276821Y0043337D02*
X0276120Y0044038D01*
X0276120Y0045439D01*
X0276821Y0046140D01*
X0276821Y0047941D02*
X0279623Y0050744D01*
X0276821Y0050744D01*
X0276120Y0050043D01*
X0276120Y0048642D01*
X0276821Y0047941D01*
X0279623Y0047941D01*
X0280324Y0048642D01*
X0280324Y0050043D01*
X0279623Y0050744D01*
X0286120Y0050744D02*
X0286120Y0047941D01*
X0286120Y0049342D02*
X0290324Y0049342D01*
X0288923Y0047941D01*
X0289623Y0046140D02*
X0290324Y0045439D01*
X0290324Y0044038D01*
X0289623Y0043337D01*
X0286821Y0043337D01*
X0286120Y0044038D01*
X0286120Y0045439D01*
X0286821Y0046140D01*
X0280324Y0045439D02*
X0280324Y0044038D01*
X0279623Y0043337D01*
X0276821Y0043337D01*
X0279623Y0046140D02*
X0280324Y0045439D01*
X0287522Y0040835D02*
X0287522Y0038733D01*
X0286120Y0038733D02*
X0290324Y0038733D01*
X0290324Y0040835D01*
X0289623Y0041536D01*
X0288222Y0041536D01*
X0287522Y0040835D01*
X0296120Y0038733D02*
X0300324Y0038733D01*
X0300324Y0040835D01*
X0299623Y0041536D01*
X0298222Y0041536D01*
X0297522Y0040835D01*
X0297522Y0038733D01*
X0306120Y0038733D02*
X0310324Y0038733D01*
X0310324Y0040835D01*
X0309623Y0041536D01*
X0308222Y0041536D01*
X0307522Y0040835D01*
X0307522Y0038733D01*
X0306821Y0043337D02*
X0306120Y0044038D01*
X0306120Y0045439D01*
X0306821Y0046140D01*
X0306821Y0047941D02*
X0306120Y0048642D01*
X0306120Y0050043D01*
X0306821Y0050744D01*
X0307522Y0050744D01*
X0308222Y0050043D01*
X0308222Y0049342D01*
X0308222Y0050043D02*
X0308923Y0050744D01*
X0309623Y0050744D01*
X0310324Y0050043D01*
X0310324Y0048642D01*
X0309623Y0047941D01*
X0309623Y0046140D02*
X0310324Y0045439D01*
X0310324Y0044038D01*
X0309623Y0043337D01*
X0306821Y0043337D01*
X0300324Y0044038D02*
X0299623Y0043337D01*
X0296821Y0043337D01*
X0296120Y0044038D01*
X0296120Y0045439D01*
X0296821Y0046140D01*
X0296120Y0047941D02*
X0298923Y0050744D01*
X0299623Y0050744D01*
X0300324Y0050043D01*
X0300324Y0048642D01*
X0299623Y0047941D01*
X0299623Y0046140D02*
X0300324Y0045439D01*
X0300324Y0044038D01*
X0296120Y0047941D02*
X0296120Y0050744D01*
X0316120Y0050043D02*
X0320324Y0050043D01*
X0318222Y0047941D01*
X0318222Y0050744D01*
X0326120Y0050043D02*
X0326120Y0048642D01*
X0326821Y0047941D01*
X0328222Y0047941D02*
X0328923Y0049342D01*
X0328923Y0050043D01*
X0328222Y0050744D01*
X0326821Y0050744D01*
X0326120Y0050043D01*
X0328222Y0047941D02*
X0330324Y0047941D01*
X0330324Y0050744D01*
X0336120Y0050043D02*
X0336821Y0050744D01*
X0339623Y0050744D01*
X0340324Y0050043D01*
X0340324Y0047941D01*
X0336120Y0047941D01*
X0336120Y0050043D01*
X0336120Y0046140D02*
X0340324Y0046140D01*
X0340324Y0043337D02*
X0336120Y0043337D01*
X0336821Y0041536D02*
X0338222Y0041536D01*
X0338222Y0040135D01*
X0336821Y0041536D02*
X0336120Y0040835D01*
X0336120Y0039434D01*
X0336821Y0038733D01*
X0339623Y0038733D01*
X0340324Y0039434D01*
X0340324Y0040835D01*
X0339623Y0041536D01*
X0340324Y0043337D02*
X0336120Y0046140D01*
X0330324Y0045439D02*
X0330324Y0044038D01*
X0329623Y0043337D01*
X0326821Y0043337D01*
X0326120Y0044038D01*
X0326120Y0045439D01*
X0326821Y0046140D01*
X0329623Y0046140D02*
X0330324Y0045439D01*
X0329623Y0041536D02*
X0328222Y0041536D01*
X0327522Y0040835D01*
X0327522Y0038733D01*
X0326120Y0038733D02*
X0330324Y0038733D01*
X0330324Y0040835D01*
X0329623Y0041536D01*
X0320324Y0040835D02*
X0320324Y0038733D01*
X0316120Y0038733D01*
X0317522Y0038733D02*
X0317522Y0040835D01*
X0318222Y0041536D01*
X0319623Y0041536D01*
X0320324Y0040835D01*
X0319623Y0043337D02*
X0316821Y0043337D01*
X0316120Y0044038D01*
X0316120Y0045439D01*
X0316821Y0046140D01*
X0319623Y0046140D02*
X0320324Y0045439D01*
X0320324Y0044038D01*
X0319623Y0043337D01*
X0346120Y0043337D02*
X0346120Y0045439D01*
X0346821Y0046140D01*
X0349623Y0046140D01*
X0350324Y0045439D01*
X0350324Y0043337D01*
X0346120Y0043337D01*
X0347522Y0041536D02*
X0350324Y0041536D01*
X0347522Y0041536D02*
X0346120Y0040135D01*
X0347522Y0038733D01*
X0350324Y0038733D01*
X0356120Y0038733D02*
X0360324Y0038733D01*
X0360324Y0040835D01*
X0359623Y0041536D01*
X0358222Y0041536D01*
X0357522Y0040835D01*
X0357522Y0038733D01*
X0366120Y0038733D02*
X0370324Y0038733D01*
X0370324Y0040835D01*
X0369623Y0041536D01*
X0368222Y0041536D01*
X0367522Y0040835D01*
X0367522Y0038733D01*
X0376120Y0038733D02*
X0380324Y0038733D01*
X0380324Y0040835D01*
X0379623Y0041536D01*
X0378222Y0041536D01*
X0377522Y0040835D01*
X0377522Y0038733D01*
X0386120Y0038733D02*
X0390324Y0038733D01*
X0390324Y0040835D01*
X0389623Y0041536D01*
X0388222Y0041536D01*
X0387522Y0040835D01*
X0387522Y0038733D01*
X0388222Y0043337D02*
X0388222Y0046140D01*
X0388923Y0046140D02*
X0386120Y0046140D01*
X0386821Y0047941D02*
X0386120Y0048642D01*
X0386120Y0050043D01*
X0386821Y0050744D01*
X0387522Y0050744D01*
X0388222Y0050043D01*
X0388222Y0049342D01*
X0388222Y0050043D02*
X0388923Y0050744D01*
X0389623Y0050744D01*
X0390324Y0050043D01*
X0390324Y0048642D01*
X0389623Y0047941D01*
X0388923Y0046140D02*
X0390324Y0044738D01*
X0388923Y0043337D01*
X0386120Y0043337D01*
X0380324Y0044738D02*
X0378923Y0046140D01*
X0376120Y0046140D01*
X0376120Y0047941D02*
X0378923Y0050744D01*
X0379623Y0050744D01*
X0380324Y0050043D01*
X0380324Y0048642D01*
X0379623Y0047941D01*
X0378222Y0046140D02*
X0378222Y0043337D01*
X0378923Y0043337D02*
X0380324Y0044738D01*
X0378923Y0043337D02*
X0376120Y0043337D01*
X0370324Y0044738D02*
X0368923Y0046140D01*
X0366120Y0046140D01*
X0366120Y0047941D02*
X0366120Y0050744D01*
X0366120Y0049342D02*
X0370324Y0049342D01*
X0368923Y0047941D01*
X0368222Y0046140D02*
X0368222Y0043337D01*
X0368923Y0043337D02*
X0370324Y0044738D01*
X0368923Y0043337D02*
X0366120Y0043337D01*
X0360324Y0044738D02*
X0358923Y0046140D01*
X0356120Y0046140D01*
X0356821Y0047941D02*
X0359623Y0050744D01*
X0356821Y0050744D01*
X0356120Y0050043D01*
X0356120Y0048642D01*
X0356821Y0047941D01*
X0359623Y0047941D01*
X0360324Y0048642D01*
X0360324Y0050043D01*
X0359623Y0050744D01*
X0358222Y0046140D02*
X0358222Y0043337D01*
X0358923Y0043337D02*
X0356120Y0043337D01*
X0358923Y0043337D02*
X0360324Y0044738D01*
X0350324Y0047941D02*
X0350324Y0050043D01*
X0349623Y0050744D01*
X0346821Y0050744D01*
X0346120Y0050043D01*
X0346120Y0047941D01*
X0350324Y0047941D01*
X0348923Y0052545D02*
X0350324Y0053946D01*
X0348923Y0055347D01*
X0346120Y0055347D01*
X0348222Y0055347D02*
X0348222Y0052545D01*
X0348923Y0052545D02*
X0346120Y0052545D01*
X0376120Y0050744D02*
X0376120Y0047941D01*
X0396120Y0047941D02*
X0396120Y0050043D01*
X0396821Y0050744D01*
X0399623Y0050744D01*
X0400324Y0050043D01*
X0400324Y0047941D01*
X0396120Y0047941D01*
X0396120Y0046140D02*
X0400324Y0046140D01*
X0400324Y0043337D02*
X0396120Y0046140D01*
X0396120Y0043337D02*
X0400324Y0043337D01*
X0399623Y0041536D02*
X0400324Y0040835D01*
X0400324Y0039434D01*
X0399623Y0038733D01*
X0396821Y0038733D01*
X0396120Y0039434D01*
X0396120Y0040835D01*
X0396821Y0041536D01*
X0398222Y0041536D01*
X0398222Y0040135D01*
X0406120Y0040135D02*
X0407522Y0041536D01*
X0410324Y0041536D01*
X0410324Y0043337D02*
X0406120Y0043337D01*
X0406120Y0045439D01*
X0406821Y0046140D01*
X0409623Y0046140D01*
X0410324Y0045439D01*
X0410324Y0043337D01*
X0416120Y0043337D02*
X0418923Y0043337D01*
X0420324Y0044738D01*
X0418923Y0046140D01*
X0416120Y0046140D01*
X0418222Y0046140D02*
X0418222Y0043337D01*
X0418222Y0041536D02*
X0417522Y0040835D01*
X0417522Y0038733D01*
X0416120Y0038733D02*
X0420324Y0038733D01*
X0420324Y0040835D01*
X0419623Y0041536D01*
X0418222Y0041536D01*
X0426120Y0043337D02*
X0428923Y0043337D01*
X0430324Y0044738D01*
X0428923Y0046140D01*
X0426120Y0046140D01*
X0426821Y0047941D02*
X0426120Y0048642D01*
X0426120Y0050043D01*
X0426821Y0050744D01*
X0428222Y0050744D01*
X0428923Y0050043D01*
X0428923Y0049342D01*
X0428222Y0047941D01*
X0430324Y0047941D01*
X0430324Y0050744D01*
X0436120Y0050043D02*
X0436120Y0048642D01*
X0436821Y0047941D01*
X0438222Y0047941D01*
X0438222Y0050043D01*
X0437522Y0050744D01*
X0436821Y0050744D01*
X0436120Y0050043D01*
X0438222Y0047941D02*
X0439623Y0049342D01*
X0440324Y0050744D01*
X0438923Y0046140D02*
X0436120Y0046140D01*
X0438222Y0046140D02*
X0438222Y0043337D01*
X0438923Y0043337D02*
X0440324Y0044738D01*
X0438923Y0046140D01*
X0438923Y0043337D02*
X0436120Y0043337D01*
X0438222Y0041536D02*
X0437522Y0040835D01*
X0437522Y0038733D01*
X0436120Y0038733D02*
X0440324Y0038733D01*
X0440324Y0040835D01*
X0439623Y0041536D01*
X0438222Y0041536D01*
X0430324Y0040835D02*
X0430324Y0038733D01*
X0426120Y0038733D01*
X0427522Y0038733D02*
X0427522Y0040835D01*
X0428222Y0041536D01*
X0429623Y0041536D01*
X0430324Y0040835D01*
X0428222Y0043337D02*
X0428222Y0046140D01*
X0420324Y0050043D02*
X0418222Y0047941D01*
X0418222Y0050744D01*
X0416120Y0050043D02*
X0420324Y0050043D01*
X0410324Y0050043D02*
X0410324Y0047941D01*
X0406120Y0047941D01*
X0406120Y0050043D01*
X0406821Y0050744D01*
X0409623Y0050744D01*
X0410324Y0050043D01*
X0408923Y0052545D02*
X0410324Y0053946D01*
X0408923Y0055347D01*
X0406120Y0055347D01*
X0408222Y0055347D02*
X0408222Y0052545D01*
X0408923Y0052545D02*
X0406120Y0052545D01*
X0406120Y0040135D02*
X0407522Y0038733D01*
X0410324Y0038733D01*
X0270324Y0047941D02*
X0270324Y0050043D01*
X0269623Y0050744D01*
X0266821Y0050744D01*
X0266120Y0050043D01*
X0266120Y0047941D01*
X0270324Y0047941D01*
X0210324Y0047941D02*
X0210324Y0050043D01*
X0209623Y0050744D01*
X0206821Y0050744D01*
X0206120Y0050043D01*
X0206120Y0047941D01*
X0210324Y0047941D01*
X0433220Y0120833D02*
X0435720Y0118333D01*
X0440720Y0118333D01*
X0443220Y0120833D01*
X0443220Y0125833D01*
X0440720Y0128333D01*
X0443220Y0130833D01*
X0443220Y0135833D01*
X0440720Y0138333D01*
X0435720Y0138333D01*
X0433220Y0135833D01*
X0433220Y0130833D01*
X0435720Y0128333D01*
X0433220Y0125833D01*
X0433220Y0120833D01*
X0220220Y0153833D02*
X0217720Y0151333D01*
X0212720Y0151333D01*
X0210220Y0153833D01*
X0207720Y0151333D01*
X0202720Y0151333D01*
X0200220Y0153833D01*
X0200220Y0158833D01*
X0202720Y0161333D01*
X0207720Y0161333D01*
X0210220Y0158833D01*
X0212720Y0161333D01*
X0217720Y0161333D01*
X0220220Y0158833D01*
X0220220Y0153833D01*
D12*
X0486170Y0054647D02*
X0486854Y0055331D01*
X0486170Y0054647D02*
X0486170Y0053279D01*
X0486854Y0052595D01*
X0489590Y0052595D01*
X0490274Y0053279D01*
X0490274Y0054647D01*
X0489590Y0055331D01*
X0496170Y0054647D02*
X0496170Y0053279D01*
X0496854Y0052595D01*
X0499590Y0052595D01*
X0500274Y0053279D01*
X0500274Y0054647D01*
X0499590Y0055331D01*
X0496854Y0055331D02*
X0496170Y0054647D01*
X0496854Y0050727D02*
X0499590Y0050727D01*
X0500274Y0050043D01*
X0500274Y0047991D01*
X0496170Y0047991D01*
X0496170Y0050043D01*
X0496854Y0050727D01*
X0490274Y0050043D02*
X0490274Y0047991D01*
X0486170Y0047991D01*
X0486170Y0050043D01*
X0486854Y0050727D01*
X0489590Y0050727D01*
X0490274Y0050043D01*
X0480274Y0050043D02*
X0480274Y0047991D01*
X0476170Y0047991D01*
X0476170Y0050043D01*
X0476854Y0050727D01*
X0479590Y0050727D01*
X0480274Y0050043D01*
X0470274Y0049359D02*
X0466170Y0049359D01*
X0466170Y0047991D02*
X0466170Y0050727D01*
X0468906Y0047991D02*
X0470274Y0049359D01*
X0469590Y0046123D02*
X0468906Y0046123D01*
X0468222Y0045439D01*
X0468222Y0043387D01*
X0468222Y0041519D02*
X0467538Y0040835D01*
X0467538Y0038783D01*
X0466170Y0038783D02*
X0470274Y0038783D01*
X0470274Y0040835D01*
X0469590Y0041519D01*
X0468222Y0041519D01*
X0466170Y0043387D02*
X0466170Y0045439D01*
X0466854Y0046123D01*
X0467538Y0046123D01*
X0468222Y0045439D01*
X0469590Y0046123D02*
X0470274Y0045439D01*
X0470274Y0043387D01*
X0466170Y0043387D01*
X0460274Y0043387D02*
X0460274Y0045439D01*
X0459590Y0046123D01*
X0458906Y0046123D01*
X0458222Y0045439D01*
X0458222Y0043387D01*
X0458222Y0041519D02*
X0457538Y0040835D01*
X0457538Y0038783D01*
X0456170Y0038783D02*
X0460274Y0038783D01*
X0460274Y0040835D01*
X0459590Y0041519D01*
X0458222Y0041519D01*
X0456170Y0043387D02*
X0456170Y0045439D01*
X0456854Y0046123D01*
X0457538Y0046123D01*
X0458222Y0045439D01*
X0456854Y0047991D02*
X0459590Y0050727D01*
X0456854Y0050727D01*
X0456170Y0050043D01*
X0456170Y0048675D01*
X0456854Y0047991D01*
X0459590Y0047991D01*
X0460274Y0048675D01*
X0460274Y0050043D01*
X0459590Y0050727D01*
X0450274Y0050727D02*
X0450274Y0047991D01*
X0448906Y0046123D02*
X0446170Y0046123D01*
X0446170Y0047991D02*
X0446854Y0047991D01*
X0449590Y0050727D01*
X0450274Y0050727D01*
X0448906Y0046123D02*
X0450274Y0044755D01*
X0448906Y0043387D01*
X0446170Y0043387D01*
X0448222Y0043387D02*
X0448222Y0046123D01*
X0456170Y0043387D02*
X0460274Y0043387D01*
X0450274Y0040835D02*
X0449590Y0041519D01*
X0448222Y0041519D01*
X0447538Y0040835D01*
X0447538Y0038783D01*
X0446170Y0038783D02*
X0450274Y0038783D01*
X0450274Y0040835D01*
X0476170Y0040835D02*
X0476170Y0039467D01*
X0476854Y0038783D01*
X0479590Y0038783D01*
X0480274Y0039467D01*
X0480274Y0040835D01*
X0479590Y0041519D01*
X0478222Y0041519D02*
X0478222Y0040151D01*
X0478222Y0041519D02*
X0476854Y0041519D01*
X0476170Y0040835D01*
X0476170Y0043387D02*
X0480274Y0043387D01*
X0476170Y0046123D01*
X0480274Y0046123D01*
X0486170Y0045439D02*
X0486170Y0043387D01*
X0490274Y0043387D01*
X0490274Y0045439D01*
X0489590Y0046123D01*
X0486854Y0046123D01*
X0486170Y0045439D01*
X0496170Y0045439D02*
X0496170Y0043387D01*
X0500274Y0043387D01*
X0500274Y0045439D01*
X0499590Y0046123D01*
X0496854Y0046123D01*
X0496170Y0045439D01*
X0497538Y0041519D02*
X0500274Y0041519D01*
X0500274Y0038783D02*
X0497538Y0038783D01*
X0496170Y0040151D01*
X0497538Y0041519D01*
X0490274Y0041519D02*
X0487538Y0041519D01*
X0486170Y0040151D01*
X0487538Y0038783D01*
X0490274Y0038783D01*
X0506170Y0039467D02*
X0506170Y0040835D01*
X0506854Y0041519D01*
X0506170Y0043387D02*
X0510274Y0043387D01*
X0508906Y0044755D01*
X0510274Y0046123D01*
X0506170Y0046123D01*
X0516170Y0046123D02*
X0520274Y0046123D01*
X0520274Y0047991D02*
X0516170Y0047991D01*
X0516170Y0050043D01*
X0516854Y0050727D01*
X0519590Y0050727D01*
X0520274Y0050043D01*
X0520274Y0047991D01*
X0516170Y0046123D02*
X0520274Y0043387D01*
X0516170Y0043387D01*
X0516854Y0041519D02*
X0518222Y0041519D01*
X0518222Y0040151D01*
X0516854Y0038783D02*
X0516170Y0039467D01*
X0516170Y0040835D01*
X0516854Y0041519D01*
X0516854Y0038783D02*
X0519590Y0038783D01*
X0520274Y0039467D01*
X0520274Y0040835D01*
X0519590Y0041519D01*
X0526170Y0040835D02*
X0526170Y0039467D01*
X0526854Y0038783D01*
X0529590Y0038783D01*
X0530274Y0039467D01*
X0530274Y0040835D01*
X0529590Y0041519D01*
X0528222Y0041519D02*
X0528222Y0040151D01*
X0528222Y0041519D02*
X0526854Y0041519D01*
X0526170Y0040835D01*
X0526170Y0043387D02*
X0530274Y0043387D01*
X0526170Y0046123D01*
X0530274Y0046123D01*
X0530274Y0047991D02*
X0526170Y0047991D01*
X0526170Y0050043D01*
X0526854Y0050727D01*
X0529590Y0050727D01*
X0530274Y0050043D01*
X0530274Y0047991D01*
X0536170Y0049192D02*
X0540274Y0046457D01*
X0536170Y0046457D01*
X0536170Y0044755D02*
X0536170Y0043387D01*
X0536170Y0044071D02*
X0540274Y0044071D01*
X0540274Y0043387D02*
X0540274Y0044755D01*
X0536170Y0041519D02*
X0536170Y0038783D01*
X0540274Y0038783D01*
X0546170Y0038783D02*
X0546170Y0041519D01*
X0546170Y0043387D02*
X0546170Y0044755D01*
X0546170Y0044071D02*
X0550274Y0044071D01*
X0550274Y0043387D02*
X0550274Y0044755D01*
X0550274Y0046457D02*
X0546170Y0046457D01*
X0546170Y0049192D02*
X0550274Y0049192D01*
X0550274Y0046457D02*
X0546170Y0049192D01*
X0548222Y0051060D02*
X0548222Y0053796D01*
X0539590Y0052428D02*
X0536854Y0052428D01*
X0538222Y0051060D02*
X0538222Y0053796D01*
X0536170Y0049192D02*
X0540274Y0049192D01*
X0556170Y0049192D02*
X0560274Y0049192D01*
X0560274Y0046457D02*
X0556170Y0046457D01*
X0556170Y0044755D02*
X0556170Y0043387D01*
X0556170Y0044071D02*
X0560274Y0044071D01*
X0560274Y0043387D02*
X0560274Y0044755D01*
X0560274Y0046457D02*
X0556170Y0049192D01*
X0558222Y0051060D02*
X0558222Y0053796D01*
X0559590Y0052428D02*
X0556854Y0052428D01*
X0568222Y0051060D02*
X0568222Y0053796D01*
X0566170Y0049192D02*
X0570274Y0049192D01*
X0570274Y0046457D02*
X0566170Y0049192D01*
X0566170Y0046457D02*
X0570274Y0046457D01*
X0570274Y0044755D02*
X0570274Y0043387D01*
X0570274Y0044071D02*
X0566170Y0044071D01*
X0566170Y0043387D02*
X0566170Y0044755D01*
X0566170Y0041519D02*
X0567538Y0040151D01*
X0567538Y0040835D02*
X0567538Y0038783D01*
X0566170Y0038783D02*
X0570274Y0038783D01*
X0570274Y0040835D01*
X0569590Y0041519D01*
X0568222Y0041519D01*
X0567538Y0040835D01*
X0560274Y0040835D02*
X0560274Y0038783D01*
X0556170Y0038783D01*
X0557538Y0038783D02*
X0557538Y0040835D01*
X0558222Y0041519D01*
X0559590Y0041519D01*
X0560274Y0040835D01*
X0557538Y0040151D02*
X0556170Y0041519D01*
X0550274Y0038783D02*
X0546170Y0038783D01*
X0510274Y0039467D02*
X0509590Y0038783D01*
X0506854Y0038783D01*
X0506170Y0039467D01*
X0509590Y0041519D02*
X0510274Y0040835D01*
X0510274Y0039467D01*
D13*
X0450174Y0118283D02*
X0445670Y0121286D01*
X0447922Y0122887D02*
X0447922Y0125890D01*
X0445670Y0125139D02*
X0450174Y0125139D01*
X0447922Y0122887D01*
X0450174Y0121286D02*
X0445670Y0118283D01*
X0220270Y0163783D02*
X0217268Y0168287D01*
X0215667Y0167537D02*
X0214916Y0168287D01*
X0213415Y0168287D01*
X0212664Y0167537D01*
X0212664Y0166786D01*
X0213415Y0166035D01*
X0212664Y0165285D01*
X0212664Y0164534D01*
X0213415Y0163783D01*
X0214916Y0163783D01*
X0215667Y0164534D01*
X0217268Y0163783D02*
X0220270Y0168287D01*
X0214165Y0166035D02*
X0213415Y0166035D01*
D14*
X0213115Y0148637D02*
X0212347Y0147870D01*
X0215417Y0144801D01*
X0214649Y0144033D01*
X0213115Y0144033D01*
X0212347Y0144801D01*
X0212347Y0147870D01*
X0213115Y0148637D02*
X0214649Y0148637D01*
X0215417Y0147870D01*
X0215417Y0144801D01*
X0216951Y0144033D02*
X0216951Y0148637D01*
X0218486Y0147103D01*
X0220020Y0148637D01*
X0220020Y0144033D01*
X0210813Y0144033D02*
X0207743Y0147103D01*
X0207743Y0147870D01*
X0208511Y0148637D01*
X0210045Y0148637D01*
X0210813Y0147870D01*
X0206209Y0148637D02*
X0203907Y0148637D01*
X0203139Y0147870D01*
X0203139Y0146335D01*
X0203907Y0145568D01*
X0206209Y0145568D01*
X0206209Y0144033D02*
X0206209Y0148637D01*
X0201605Y0148637D02*
X0198535Y0148637D01*
X0197001Y0148637D02*
X0197001Y0144033D01*
X0197001Y0146335D02*
X0193932Y0146335D01*
X0193932Y0148637D02*
X0193932Y0144033D01*
X0200070Y0144033D02*
X0200070Y0148637D01*
X0207743Y0144033D02*
X0210813Y0144033D01*
X0425920Y0144622D02*
X0430524Y0144622D01*
X0428222Y0144622D02*
X0428222Y0141553D01*
X0425920Y0141553D02*
X0430524Y0141553D01*
X0430524Y0140018D02*
X0430524Y0136949D01*
X0430524Y0138484D02*
X0425920Y0138484D01*
X0428222Y0135414D02*
X0427455Y0134647D01*
X0427455Y0132345D01*
X0425920Y0132345D02*
X0430524Y0132345D01*
X0430524Y0134647D01*
X0429757Y0135414D01*
X0428222Y0135414D01*
X0428990Y0130810D02*
X0429757Y0130810D01*
X0430524Y0130043D01*
X0430524Y0128508D01*
X0429757Y0127741D01*
X0429757Y0126207D02*
X0426688Y0123137D01*
X0425920Y0123905D01*
X0425920Y0125439D01*
X0426688Y0126207D01*
X0429757Y0126207D01*
X0430524Y0125439D01*
X0430524Y0123905D01*
X0429757Y0123137D01*
X0426688Y0123137D01*
X0425920Y0121603D02*
X0430524Y0121603D01*
X0428990Y0120068D01*
X0430524Y0118533D01*
X0425920Y0118533D01*
X0425920Y0127741D02*
X0428990Y0130810D01*
X0425920Y0130810D02*
X0425920Y0127741D01*
M02*
