%
M48
M72
T01C0.0320
T02C0.0350
T03C0.0354
T04C0.0400
T05C0.0433
T06C0.0472
T07C0.0550
T08C0.0827
T09C0.1181
%
T01
X36322Y12833
X39322Y12833
X39322Y13833
X39322Y14833
X36322Y14833
X36322Y13833
X36322Y15833
X39322Y15833
X44822Y11833
X45822Y11833
X49822Y11833
X50822Y11833
X54822Y11833
X55822Y11833
X16322Y13833
X15322Y13833
T02
X9322Y12833
X8322Y12833
X7322Y12833
X4322Y9833
X4322Y8833
X4322Y7833
T03
X11322Y7583
X13322Y7583
X13322Y10083
X11322Y10083
T04
X20522Y15633
X21522Y15633
X43822Y13333
X43822Y12333
X46932Y9613
X48712Y9613
X51932Y9613
X53712Y9613
X56932Y9613
X58712Y9613
X58712Y7053
X56932Y7053
X53712Y7053
X51932Y7053
X48712Y7053
X46932Y7053
X46822Y3333
X45822Y3333
X44822Y3333
X43822Y3333
X42822Y3333
X41822Y3333
X40822Y3333
X39822Y3333
X38822Y3333
X37822Y3333
X36822Y3333
X35822Y3333
X34822Y3333
X33822Y3333
X32822Y3333
X31822Y3333
X30822Y3333
X29822Y3333
X28822Y3333
X27822Y3333
X26822Y3333
X25822Y3333
X24822Y3333
X23822Y3333
X22822Y3333
X21822Y3333
X20822Y3333
X47822Y3333
X48822Y3333
X49822Y3333
X50822Y3333
X51822Y3333
X52822Y3333
X53822Y3333
X54822Y3333
X55822Y3333
X56822Y3333
X57822Y3333
X58822Y3333
X59822Y3333
T05
X41806Y6077
X40822Y6077
X39838Y6077
X31306Y6077
X30322Y6077
X29338Y6077
X20806Y6077
X19822Y6077
X18838Y6077
X9306Y6077
X8322Y6077
X7338Y6077
X22838Y16577
X23822Y16577
X24806Y16577
X32838Y16577
X33822Y16577
X34806Y16577
X40338Y16577
X41322Y16577
X42306Y16577
T06
X46838Y10794
X48806Y10794
X51838Y10794
X53806Y10794
X56838Y10794
X58806Y10794
X58806Y5873
X56838Y5873
X53806Y5873
X51838Y5873
X48806Y5873
X46838Y5873
T07
X5697Y5833
X10947Y5833
X10947Y11833
X5697Y11833
T08
X6550Y8833
X10094Y8833
X18050Y8833
X21594Y8833
X28550Y8833
X32094Y8833
X39050Y8833
X42594Y8833
X43094Y19333
X39550Y19333
X35594Y19333
X32050Y19333
X25594Y19333
X22050Y19333
T09
X1700Y18581
X1700Y6770
X61936Y6770
X61936Y18581
M30
