G75*
%MOIN*%
%OFA0B0*%
%FSLAX25Y25*%
%IPPOS*%
%LPD*%
%AMOC8*
5,1,8,0,0,1.08239X$1,22.5*
%
%ADD10C,0.00000*%
D10*
X0015031Y0028333D02*
X0621331Y0028333D01*
X0621616Y0028336D01*
X0621902Y0028347D01*
X0622187Y0028364D01*
X0622471Y0028388D01*
X0622755Y0028419D01*
X0623038Y0028457D01*
X0623319Y0028502D01*
X0623600Y0028553D01*
X0623880Y0028611D01*
X0624158Y0028676D01*
X0624434Y0028748D01*
X0624708Y0028826D01*
X0624981Y0028911D01*
X0625251Y0029003D01*
X0625519Y0029101D01*
X0625785Y0029205D01*
X0626048Y0029316D01*
X0626308Y0029433D01*
X0626566Y0029556D01*
X0626820Y0029686D01*
X0627071Y0029822D01*
X0627319Y0029963D01*
X0627563Y0030111D01*
X0627804Y0030264D01*
X0628040Y0030424D01*
X0628273Y0030589D01*
X0628502Y0030759D01*
X0628727Y0030935D01*
X0628947Y0031117D01*
X0629163Y0031303D01*
X0629374Y0031495D01*
X0629581Y0031692D01*
X0629783Y0031894D01*
X0629980Y0032101D01*
X0630172Y0032312D01*
X0630358Y0032528D01*
X0630540Y0032748D01*
X0630716Y0032973D01*
X0630886Y0033202D01*
X0631051Y0033435D01*
X0631211Y0033671D01*
X0631364Y0033912D01*
X0631512Y0034156D01*
X0631653Y0034404D01*
X0631789Y0034655D01*
X0631919Y0034909D01*
X0632042Y0035167D01*
X0632159Y0035427D01*
X0632270Y0035690D01*
X0632374Y0035956D01*
X0632472Y0036224D01*
X0632564Y0036494D01*
X0632649Y0036767D01*
X0632727Y0037041D01*
X0632799Y0037317D01*
X0632864Y0037595D01*
X0632922Y0037875D01*
X0632973Y0038156D01*
X0633018Y0038437D01*
X0633056Y0038720D01*
X0633087Y0039004D01*
X0633111Y0039288D01*
X0633128Y0039573D01*
X0633139Y0039859D01*
X0633142Y0040144D01*
X0633142Y0213373D01*
X0633139Y0213658D01*
X0633128Y0213944D01*
X0633111Y0214229D01*
X0633087Y0214513D01*
X0633056Y0214797D01*
X0633018Y0215080D01*
X0632973Y0215361D01*
X0632922Y0215642D01*
X0632864Y0215922D01*
X0632799Y0216200D01*
X0632727Y0216476D01*
X0632649Y0216750D01*
X0632564Y0217023D01*
X0632472Y0217293D01*
X0632374Y0217561D01*
X0632270Y0217827D01*
X0632159Y0218090D01*
X0632042Y0218350D01*
X0631919Y0218608D01*
X0631789Y0218862D01*
X0631653Y0219113D01*
X0631512Y0219361D01*
X0631364Y0219605D01*
X0631211Y0219846D01*
X0631051Y0220082D01*
X0630886Y0220315D01*
X0630716Y0220544D01*
X0630540Y0220769D01*
X0630358Y0220989D01*
X0630172Y0221205D01*
X0629980Y0221416D01*
X0629783Y0221623D01*
X0629581Y0221825D01*
X0629374Y0222022D01*
X0629163Y0222214D01*
X0628947Y0222400D01*
X0628727Y0222582D01*
X0628502Y0222758D01*
X0628273Y0222928D01*
X0628040Y0223093D01*
X0627804Y0223253D01*
X0627563Y0223406D01*
X0627319Y0223554D01*
X0627071Y0223695D01*
X0626820Y0223831D01*
X0626566Y0223961D01*
X0626308Y0224084D01*
X0626048Y0224201D01*
X0625785Y0224312D01*
X0625519Y0224416D01*
X0625251Y0224514D01*
X0624981Y0224606D01*
X0624708Y0224691D01*
X0624434Y0224769D01*
X0624158Y0224841D01*
X0623880Y0224906D01*
X0623600Y0224964D01*
X0623319Y0225015D01*
X0623038Y0225060D01*
X0622755Y0225098D01*
X0622471Y0225129D01*
X0622187Y0225153D01*
X0621902Y0225170D01*
X0621616Y0225181D01*
X0621331Y0225184D01*
X0603220Y0225184D01*
X0603220Y0128333D01*
X0448220Y0128333D01*
X0448220Y0225184D01*
X0303220Y0225184D01*
X0303220Y0148333D01*
X0273220Y0148333D01*
X0273220Y0225184D01*
X0198220Y0225184D01*
X0198220Y0158333D01*
X0033220Y0158333D01*
X0033220Y0225184D01*
X0015031Y0225184D01*
X0014746Y0225181D01*
X0014460Y0225170D01*
X0014175Y0225153D01*
X0013891Y0225129D01*
X0013607Y0225098D01*
X0013324Y0225060D01*
X0013043Y0225015D01*
X0012762Y0224964D01*
X0012482Y0224906D01*
X0012204Y0224841D01*
X0011928Y0224769D01*
X0011654Y0224691D01*
X0011381Y0224606D01*
X0011111Y0224514D01*
X0010843Y0224416D01*
X0010577Y0224312D01*
X0010314Y0224201D01*
X0010054Y0224084D01*
X0009796Y0223961D01*
X0009542Y0223831D01*
X0009291Y0223695D01*
X0009043Y0223554D01*
X0008799Y0223406D01*
X0008558Y0223253D01*
X0008322Y0223093D01*
X0008089Y0222928D01*
X0007860Y0222758D01*
X0007635Y0222582D01*
X0007415Y0222400D01*
X0007199Y0222214D01*
X0006988Y0222022D01*
X0006781Y0221825D01*
X0006579Y0221623D01*
X0006382Y0221416D01*
X0006190Y0221205D01*
X0006004Y0220989D01*
X0005822Y0220769D01*
X0005646Y0220544D01*
X0005476Y0220315D01*
X0005311Y0220082D01*
X0005151Y0219846D01*
X0004998Y0219605D01*
X0004850Y0219361D01*
X0004709Y0219113D01*
X0004573Y0218862D01*
X0004443Y0218608D01*
X0004320Y0218350D01*
X0004203Y0218090D01*
X0004092Y0217827D01*
X0003988Y0217561D01*
X0003890Y0217293D01*
X0003798Y0217023D01*
X0003713Y0216750D01*
X0003635Y0216476D01*
X0003563Y0216200D01*
X0003498Y0215922D01*
X0003440Y0215642D01*
X0003389Y0215361D01*
X0003344Y0215080D01*
X0003306Y0214797D01*
X0003275Y0214513D01*
X0003251Y0214229D01*
X0003234Y0213944D01*
X0003223Y0213658D01*
X0003220Y0213373D01*
X0003220Y0040144D01*
X0003223Y0039859D01*
X0003234Y0039573D01*
X0003251Y0039288D01*
X0003275Y0039004D01*
X0003306Y0038720D01*
X0003344Y0038437D01*
X0003389Y0038156D01*
X0003440Y0037875D01*
X0003498Y0037595D01*
X0003563Y0037317D01*
X0003635Y0037041D01*
X0003713Y0036767D01*
X0003798Y0036494D01*
X0003890Y0036224D01*
X0003988Y0035956D01*
X0004092Y0035690D01*
X0004203Y0035427D01*
X0004320Y0035167D01*
X0004443Y0034909D01*
X0004573Y0034655D01*
X0004709Y0034404D01*
X0004850Y0034156D01*
X0004998Y0033912D01*
X0005151Y0033671D01*
X0005311Y0033435D01*
X0005476Y0033202D01*
X0005646Y0032973D01*
X0005822Y0032748D01*
X0006004Y0032528D01*
X0006190Y0032312D01*
X0006382Y0032101D01*
X0006579Y0031894D01*
X0006781Y0031692D01*
X0006988Y0031495D01*
X0007199Y0031303D01*
X0007415Y0031117D01*
X0007635Y0030935D01*
X0007860Y0030759D01*
X0008089Y0030589D01*
X0008322Y0030424D01*
X0008558Y0030264D01*
X0008799Y0030111D01*
X0009043Y0029963D01*
X0009291Y0029822D01*
X0009542Y0029686D01*
X0009796Y0029556D01*
X0010054Y0029433D01*
X0010314Y0029316D01*
X0010577Y0029205D01*
X0010843Y0029101D01*
X0011111Y0029003D01*
X0011381Y0028911D01*
X0011654Y0028826D01*
X0011928Y0028748D01*
X0012204Y0028676D01*
X0012482Y0028611D01*
X0012762Y0028553D01*
X0013043Y0028502D01*
X0013324Y0028457D01*
X0013607Y0028419D01*
X0013891Y0028388D01*
X0014175Y0028364D01*
X0014460Y0028347D01*
X0014746Y0028336D01*
X0015031Y0028333D01*
X0011094Y0067703D02*
X0011096Y0067856D01*
X0011102Y0068010D01*
X0011112Y0068163D01*
X0011126Y0068315D01*
X0011144Y0068468D01*
X0011166Y0068619D01*
X0011191Y0068770D01*
X0011221Y0068921D01*
X0011255Y0069071D01*
X0011292Y0069219D01*
X0011333Y0069367D01*
X0011378Y0069513D01*
X0011427Y0069659D01*
X0011480Y0069803D01*
X0011536Y0069945D01*
X0011596Y0070086D01*
X0011660Y0070226D01*
X0011727Y0070364D01*
X0011798Y0070500D01*
X0011873Y0070634D01*
X0011950Y0070766D01*
X0012032Y0070896D01*
X0012116Y0071024D01*
X0012204Y0071150D01*
X0012295Y0071273D01*
X0012389Y0071394D01*
X0012487Y0071512D01*
X0012587Y0071628D01*
X0012691Y0071741D01*
X0012797Y0071852D01*
X0012906Y0071960D01*
X0013018Y0072065D01*
X0013132Y0072166D01*
X0013250Y0072265D01*
X0013369Y0072361D01*
X0013491Y0072454D01*
X0013616Y0072543D01*
X0013743Y0072630D01*
X0013872Y0072712D01*
X0014003Y0072792D01*
X0014136Y0072868D01*
X0014271Y0072941D01*
X0014408Y0073010D01*
X0014547Y0073075D01*
X0014687Y0073137D01*
X0014829Y0073195D01*
X0014972Y0073250D01*
X0015117Y0073301D01*
X0015263Y0073348D01*
X0015410Y0073391D01*
X0015558Y0073430D01*
X0015707Y0073466D01*
X0015857Y0073497D01*
X0016008Y0073525D01*
X0016159Y0073549D01*
X0016312Y0073569D01*
X0016464Y0073585D01*
X0016617Y0073597D01*
X0016770Y0073605D01*
X0016923Y0073609D01*
X0017077Y0073609D01*
X0017230Y0073605D01*
X0017383Y0073597D01*
X0017536Y0073585D01*
X0017688Y0073569D01*
X0017841Y0073549D01*
X0017992Y0073525D01*
X0018143Y0073497D01*
X0018293Y0073466D01*
X0018442Y0073430D01*
X0018590Y0073391D01*
X0018737Y0073348D01*
X0018883Y0073301D01*
X0019028Y0073250D01*
X0019171Y0073195D01*
X0019313Y0073137D01*
X0019453Y0073075D01*
X0019592Y0073010D01*
X0019729Y0072941D01*
X0019864Y0072868D01*
X0019997Y0072792D01*
X0020128Y0072712D01*
X0020257Y0072630D01*
X0020384Y0072543D01*
X0020509Y0072454D01*
X0020631Y0072361D01*
X0020750Y0072265D01*
X0020868Y0072166D01*
X0020982Y0072065D01*
X0021094Y0071960D01*
X0021203Y0071852D01*
X0021309Y0071741D01*
X0021413Y0071628D01*
X0021513Y0071512D01*
X0021611Y0071394D01*
X0021705Y0071273D01*
X0021796Y0071150D01*
X0021884Y0071024D01*
X0021968Y0070896D01*
X0022050Y0070766D01*
X0022127Y0070634D01*
X0022202Y0070500D01*
X0022273Y0070364D01*
X0022340Y0070226D01*
X0022404Y0070086D01*
X0022464Y0069945D01*
X0022520Y0069803D01*
X0022573Y0069659D01*
X0022622Y0069513D01*
X0022667Y0069367D01*
X0022708Y0069219D01*
X0022745Y0069071D01*
X0022779Y0068921D01*
X0022809Y0068770D01*
X0022834Y0068619D01*
X0022856Y0068468D01*
X0022874Y0068315D01*
X0022888Y0068163D01*
X0022898Y0068010D01*
X0022904Y0067856D01*
X0022906Y0067703D01*
X0022904Y0067550D01*
X0022898Y0067396D01*
X0022888Y0067243D01*
X0022874Y0067091D01*
X0022856Y0066938D01*
X0022834Y0066787D01*
X0022809Y0066636D01*
X0022779Y0066485D01*
X0022745Y0066335D01*
X0022708Y0066187D01*
X0022667Y0066039D01*
X0022622Y0065893D01*
X0022573Y0065747D01*
X0022520Y0065603D01*
X0022464Y0065461D01*
X0022404Y0065320D01*
X0022340Y0065180D01*
X0022273Y0065042D01*
X0022202Y0064906D01*
X0022127Y0064772D01*
X0022050Y0064640D01*
X0021968Y0064510D01*
X0021884Y0064382D01*
X0021796Y0064256D01*
X0021705Y0064133D01*
X0021611Y0064012D01*
X0021513Y0063894D01*
X0021413Y0063778D01*
X0021309Y0063665D01*
X0021203Y0063554D01*
X0021094Y0063446D01*
X0020982Y0063341D01*
X0020868Y0063240D01*
X0020750Y0063141D01*
X0020631Y0063045D01*
X0020509Y0062952D01*
X0020384Y0062863D01*
X0020257Y0062776D01*
X0020128Y0062694D01*
X0019997Y0062614D01*
X0019864Y0062538D01*
X0019729Y0062465D01*
X0019592Y0062396D01*
X0019453Y0062331D01*
X0019313Y0062269D01*
X0019171Y0062211D01*
X0019028Y0062156D01*
X0018883Y0062105D01*
X0018737Y0062058D01*
X0018590Y0062015D01*
X0018442Y0061976D01*
X0018293Y0061940D01*
X0018143Y0061909D01*
X0017992Y0061881D01*
X0017841Y0061857D01*
X0017688Y0061837D01*
X0017536Y0061821D01*
X0017383Y0061809D01*
X0017230Y0061801D01*
X0017077Y0061797D01*
X0016923Y0061797D01*
X0016770Y0061801D01*
X0016617Y0061809D01*
X0016464Y0061821D01*
X0016312Y0061837D01*
X0016159Y0061857D01*
X0016008Y0061881D01*
X0015857Y0061909D01*
X0015707Y0061940D01*
X0015558Y0061976D01*
X0015410Y0062015D01*
X0015263Y0062058D01*
X0015117Y0062105D01*
X0014972Y0062156D01*
X0014829Y0062211D01*
X0014687Y0062269D01*
X0014547Y0062331D01*
X0014408Y0062396D01*
X0014271Y0062465D01*
X0014136Y0062538D01*
X0014003Y0062614D01*
X0013872Y0062694D01*
X0013743Y0062776D01*
X0013616Y0062863D01*
X0013491Y0062952D01*
X0013369Y0063045D01*
X0013250Y0063141D01*
X0013132Y0063240D01*
X0013018Y0063341D01*
X0012906Y0063446D01*
X0012797Y0063554D01*
X0012691Y0063665D01*
X0012587Y0063778D01*
X0012487Y0063894D01*
X0012389Y0064012D01*
X0012295Y0064133D01*
X0012204Y0064256D01*
X0012116Y0064382D01*
X0012032Y0064510D01*
X0011950Y0064640D01*
X0011873Y0064772D01*
X0011798Y0064906D01*
X0011727Y0065042D01*
X0011660Y0065180D01*
X0011596Y0065320D01*
X0011536Y0065461D01*
X0011480Y0065603D01*
X0011427Y0065747D01*
X0011378Y0065893D01*
X0011333Y0066039D01*
X0011292Y0066187D01*
X0011255Y0066335D01*
X0011221Y0066485D01*
X0011191Y0066636D01*
X0011166Y0066787D01*
X0011144Y0066938D01*
X0011126Y0067091D01*
X0011112Y0067243D01*
X0011102Y0067396D01*
X0011096Y0067550D01*
X0011094Y0067703D01*
X0011094Y0185814D02*
X0011096Y0185967D01*
X0011102Y0186121D01*
X0011112Y0186274D01*
X0011126Y0186426D01*
X0011144Y0186579D01*
X0011166Y0186730D01*
X0011191Y0186881D01*
X0011221Y0187032D01*
X0011255Y0187182D01*
X0011292Y0187330D01*
X0011333Y0187478D01*
X0011378Y0187624D01*
X0011427Y0187770D01*
X0011480Y0187914D01*
X0011536Y0188056D01*
X0011596Y0188197D01*
X0011660Y0188337D01*
X0011727Y0188475D01*
X0011798Y0188611D01*
X0011873Y0188745D01*
X0011950Y0188877D01*
X0012032Y0189007D01*
X0012116Y0189135D01*
X0012204Y0189261D01*
X0012295Y0189384D01*
X0012389Y0189505D01*
X0012487Y0189623D01*
X0012587Y0189739D01*
X0012691Y0189852D01*
X0012797Y0189963D01*
X0012906Y0190071D01*
X0013018Y0190176D01*
X0013132Y0190277D01*
X0013250Y0190376D01*
X0013369Y0190472D01*
X0013491Y0190565D01*
X0013616Y0190654D01*
X0013743Y0190741D01*
X0013872Y0190823D01*
X0014003Y0190903D01*
X0014136Y0190979D01*
X0014271Y0191052D01*
X0014408Y0191121D01*
X0014547Y0191186D01*
X0014687Y0191248D01*
X0014829Y0191306D01*
X0014972Y0191361D01*
X0015117Y0191412D01*
X0015263Y0191459D01*
X0015410Y0191502D01*
X0015558Y0191541D01*
X0015707Y0191577D01*
X0015857Y0191608D01*
X0016008Y0191636D01*
X0016159Y0191660D01*
X0016312Y0191680D01*
X0016464Y0191696D01*
X0016617Y0191708D01*
X0016770Y0191716D01*
X0016923Y0191720D01*
X0017077Y0191720D01*
X0017230Y0191716D01*
X0017383Y0191708D01*
X0017536Y0191696D01*
X0017688Y0191680D01*
X0017841Y0191660D01*
X0017992Y0191636D01*
X0018143Y0191608D01*
X0018293Y0191577D01*
X0018442Y0191541D01*
X0018590Y0191502D01*
X0018737Y0191459D01*
X0018883Y0191412D01*
X0019028Y0191361D01*
X0019171Y0191306D01*
X0019313Y0191248D01*
X0019453Y0191186D01*
X0019592Y0191121D01*
X0019729Y0191052D01*
X0019864Y0190979D01*
X0019997Y0190903D01*
X0020128Y0190823D01*
X0020257Y0190741D01*
X0020384Y0190654D01*
X0020509Y0190565D01*
X0020631Y0190472D01*
X0020750Y0190376D01*
X0020868Y0190277D01*
X0020982Y0190176D01*
X0021094Y0190071D01*
X0021203Y0189963D01*
X0021309Y0189852D01*
X0021413Y0189739D01*
X0021513Y0189623D01*
X0021611Y0189505D01*
X0021705Y0189384D01*
X0021796Y0189261D01*
X0021884Y0189135D01*
X0021968Y0189007D01*
X0022050Y0188877D01*
X0022127Y0188745D01*
X0022202Y0188611D01*
X0022273Y0188475D01*
X0022340Y0188337D01*
X0022404Y0188197D01*
X0022464Y0188056D01*
X0022520Y0187914D01*
X0022573Y0187770D01*
X0022622Y0187624D01*
X0022667Y0187478D01*
X0022708Y0187330D01*
X0022745Y0187182D01*
X0022779Y0187032D01*
X0022809Y0186881D01*
X0022834Y0186730D01*
X0022856Y0186579D01*
X0022874Y0186426D01*
X0022888Y0186274D01*
X0022898Y0186121D01*
X0022904Y0185967D01*
X0022906Y0185814D01*
X0022904Y0185661D01*
X0022898Y0185507D01*
X0022888Y0185354D01*
X0022874Y0185202D01*
X0022856Y0185049D01*
X0022834Y0184898D01*
X0022809Y0184747D01*
X0022779Y0184596D01*
X0022745Y0184446D01*
X0022708Y0184298D01*
X0022667Y0184150D01*
X0022622Y0184004D01*
X0022573Y0183858D01*
X0022520Y0183714D01*
X0022464Y0183572D01*
X0022404Y0183431D01*
X0022340Y0183291D01*
X0022273Y0183153D01*
X0022202Y0183017D01*
X0022127Y0182883D01*
X0022050Y0182751D01*
X0021968Y0182621D01*
X0021884Y0182493D01*
X0021796Y0182367D01*
X0021705Y0182244D01*
X0021611Y0182123D01*
X0021513Y0182005D01*
X0021413Y0181889D01*
X0021309Y0181776D01*
X0021203Y0181665D01*
X0021094Y0181557D01*
X0020982Y0181452D01*
X0020868Y0181351D01*
X0020750Y0181252D01*
X0020631Y0181156D01*
X0020509Y0181063D01*
X0020384Y0180974D01*
X0020257Y0180887D01*
X0020128Y0180805D01*
X0019997Y0180725D01*
X0019864Y0180649D01*
X0019729Y0180576D01*
X0019592Y0180507D01*
X0019453Y0180442D01*
X0019313Y0180380D01*
X0019171Y0180322D01*
X0019028Y0180267D01*
X0018883Y0180216D01*
X0018737Y0180169D01*
X0018590Y0180126D01*
X0018442Y0180087D01*
X0018293Y0180051D01*
X0018143Y0180020D01*
X0017992Y0179992D01*
X0017841Y0179968D01*
X0017688Y0179948D01*
X0017536Y0179932D01*
X0017383Y0179920D01*
X0017230Y0179912D01*
X0017077Y0179908D01*
X0016923Y0179908D01*
X0016770Y0179912D01*
X0016617Y0179920D01*
X0016464Y0179932D01*
X0016312Y0179948D01*
X0016159Y0179968D01*
X0016008Y0179992D01*
X0015857Y0180020D01*
X0015707Y0180051D01*
X0015558Y0180087D01*
X0015410Y0180126D01*
X0015263Y0180169D01*
X0015117Y0180216D01*
X0014972Y0180267D01*
X0014829Y0180322D01*
X0014687Y0180380D01*
X0014547Y0180442D01*
X0014408Y0180507D01*
X0014271Y0180576D01*
X0014136Y0180649D01*
X0014003Y0180725D01*
X0013872Y0180805D01*
X0013743Y0180887D01*
X0013616Y0180974D01*
X0013491Y0181063D01*
X0013369Y0181156D01*
X0013250Y0181252D01*
X0013132Y0181351D01*
X0013018Y0181452D01*
X0012906Y0181557D01*
X0012797Y0181665D01*
X0012691Y0181776D01*
X0012587Y0181889D01*
X0012487Y0182005D01*
X0012389Y0182123D01*
X0012295Y0182244D01*
X0012204Y0182367D01*
X0012116Y0182493D01*
X0012032Y0182621D01*
X0011950Y0182751D01*
X0011873Y0182883D01*
X0011798Y0183017D01*
X0011727Y0183153D01*
X0011660Y0183291D01*
X0011596Y0183431D01*
X0011536Y0183572D01*
X0011480Y0183714D01*
X0011427Y0183858D01*
X0011378Y0184004D01*
X0011333Y0184150D01*
X0011292Y0184298D01*
X0011255Y0184446D01*
X0011221Y0184596D01*
X0011191Y0184747D01*
X0011166Y0184898D01*
X0011144Y0185049D01*
X0011126Y0185202D01*
X0011112Y0185354D01*
X0011102Y0185507D01*
X0011096Y0185661D01*
X0011094Y0185814D01*
X0613456Y0185814D02*
X0613458Y0185967D01*
X0613464Y0186121D01*
X0613474Y0186274D01*
X0613488Y0186426D01*
X0613506Y0186579D01*
X0613528Y0186730D01*
X0613553Y0186881D01*
X0613583Y0187032D01*
X0613617Y0187182D01*
X0613654Y0187330D01*
X0613695Y0187478D01*
X0613740Y0187624D01*
X0613789Y0187770D01*
X0613842Y0187914D01*
X0613898Y0188056D01*
X0613958Y0188197D01*
X0614022Y0188337D01*
X0614089Y0188475D01*
X0614160Y0188611D01*
X0614235Y0188745D01*
X0614312Y0188877D01*
X0614394Y0189007D01*
X0614478Y0189135D01*
X0614566Y0189261D01*
X0614657Y0189384D01*
X0614751Y0189505D01*
X0614849Y0189623D01*
X0614949Y0189739D01*
X0615053Y0189852D01*
X0615159Y0189963D01*
X0615268Y0190071D01*
X0615380Y0190176D01*
X0615494Y0190277D01*
X0615612Y0190376D01*
X0615731Y0190472D01*
X0615853Y0190565D01*
X0615978Y0190654D01*
X0616105Y0190741D01*
X0616234Y0190823D01*
X0616365Y0190903D01*
X0616498Y0190979D01*
X0616633Y0191052D01*
X0616770Y0191121D01*
X0616909Y0191186D01*
X0617049Y0191248D01*
X0617191Y0191306D01*
X0617334Y0191361D01*
X0617479Y0191412D01*
X0617625Y0191459D01*
X0617772Y0191502D01*
X0617920Y0191541D01*
X0618069Y0191577D01*
X0618219Y0191608D01*
X0618370Y0191636D01*
X0618521Y0191660D01*
X0618674Y0191680D01*
X0618826Y0191696D01*
X0618979Y0191708D01*
X0619132Y0191716D01*
X0619285Y0191720D01*
X0619439Y0191720D01*
X0619592Y0191716D01*
X0619745Y0191708D01*
X0619898Y0191696D01*
X0620050Y0191680D01*
X0620203Y0191660D01*
X0620354Y0191636D01*
X0620505Y0191608D01*
X0620655Y0191577D01*
X0620804Y0191541D01*
X0620952Y0191502D01*
X0621099Y0191459D01*
X0621245Y0191412D01*
X0621390Y0191361D01*
X0621533Y0191306D01*
X0621675Y0191248D01*
X0621815Y0191186D01*
X0621954Y0191121D01*
X0622091Y0191052D01*
X0622226Y0190979D01*
X0622359Y0190903D01*
X0622490Y0190823D01*
X0622619Y0190741D01*
X0622746Y0190654D01*
X0622871Y0190565D01*
X0622993Y0190472D01*
X0623112Y0190376D01*
X0623230Y0190277D01*
X0623344Y0190176D01*
X0623456Y0190071D01*
X0623565Y0189963D01*
X0623671Y0189852D01*
X0623775Y0189739D01*
X0623875Y0189623D01*
X0623973Y0189505D01*
X0624067Y0189384D01*
X0624158Y0189261D01*
X0624246Y0189135D01*
X0624330Y0189007D01*
X0624412Y0188877D01*
X0624489Y0188745D01*
X0624564Y0188611D01*
X0624635Y0188475D01*
X0624702Y0188337D01*
X0624766Y0188197D01*
X0624826Y0188056D01*
X0624882Y0187914D01*
X0624935Y0187770D01*
X0624984Y0187624D01*
X0625029Y0187478D01*
X0625070Y0187330D01*
X0625107Y0187182D01*
X0625141Y0187032D01*
X0625171Y0186881D01*
X0625196Y0186730D01*
X0625218Y0186579D01*
X0625236Y0186426D01*
X0625250Y0186274D01*
X0625260Y0186121D01*
X0625266Y0185967D01*
X0625268Y0185814D01*
X0625266Y0185661D01*
X0625260Y0185507D01*
X0625250Y0185354D01*
X0625236Y0185202D01*
X0625218Y0185049D01*
X0625196Y0184898D01*
X0625171Y0184747D01*
X0625141Y0184596D01*
X0625107Y0184446D01*
X0625070Y0184298D01*
X0625029Y0184150D01*
X0624984Y0184004D01*
X0624935Y0183858D01*
X0624882Y0183714D01*
X0624826Y0183572D01*
X0624766Y0183431D01*
X0624702Y0183291D01*
X0624635Y0183153D01*
X0624564Y0183017D01*
X0624489Y0182883D01*
X0624412Y0182751D01*
X0624330Y0182621D01*
X0624246Y0182493D01*
X0624158Y0182367D01*
X0624067Y0182244D01*
X0623973Y0182123D01*
X0623875Y0182005D01*
X0623775Y0181889D01*
X0623671Y0181776D01*
X0623565Y0181665D01*
X0623456Y0181557D01*
X0623344Y0181452D01*
X0623230Y0181351D01*
X0623112Y0181252D01*
X0622993Y0181156D01*
X0622871Y0181063D01*
X0622746Y0180974D01*
X0622619Y0180887D01*
X0622490Y0180805D01*
X0622359Y0180725D01*
X0622226Y0180649D01*
X0622091Y0180576D01*
X0621954Y0180507D01*
X0621815Y0180442D01*
X0621675Y0180380D01*
X0621533Y0180322D01*
X0621390Y0180267D01*
X0621245Y0180216D01*
X0621099Y0180169D01*
X0620952Y0180126D01*
X0620804Y0180087D01*
X0620655Y0180051D01*
X0620505Y0180020D01*
X0620354Y0179992D01*
X0620203Y0179968D01*
X0620050Y0179948D01*
X0619898Y0179932D01*
X0619745Y0179920D01*
X0619592Y0179912D01*
X0619439Y0179908D01*
X0619285Y0179908D01*
X0619132Y0179912D01*
X0618979Y0179920D01*
X0618826Y0179932D01*
X0618674Y0179948D01*
X0618521Y0179968D01*
X0618370Y0179992D01*
X0618219Y0180020D01*
X0618069Y0180051D01*
X0617920Y0180087D01*
X0617772Y0180126D01*
X0617625Y0180169D01*
X0617479Y0180216D01*
X0617334Y0180267D01*
X0617191Y0180322D01*
X0617049Y0180380D01*
X0616909Y0180442D01*
X0616770Y0180507D01*
X0616633Y0180576D01*
X0616498Y0180649D01*
X0616365Y0180725D01*
X0616234Y0180805D01*
X0616105Y0180887D01*
X0615978Y0180974D01*
X0615853Y0181063D01*
X0615731Y0181156D01*
X0615612Y0181252D01*
X0615494Y0181351D01*
X0615380Y0181452D01*
X0615268Y0181557D01*
X0615159Y0181665D01*
X0615053Y0181776D01*
X0614949Y0181889D01*
X0614849Y0182005D01*
X0614751Y0182123D01*
X0614657Y0182244D01*
X0614566Y0182367D01*
X0614478Y0182493D01*
X0614394Y0182621D01*
X0614312Y0182751D01*
X0614235Y0182883D01*
X0614160Y0183017D01*
X0614089Y0183153D01*
X0614022Y0183291D01*
X0613958Y0183431D01*
X0613898Y0183572D01*
X0613842Y0183714D01*
X0613789Y0183858D01*
X0613740Y0184004D01*
X0613695Y0184150D01*
X0613654Y0184298D01*
X0613617Y0184446D01*
X0613583Y0184596D01*
X0613553Y0184747D01*
X0613528Y0184898D01*
X0613506Y0185049D01*
X0613488Y0185202D01*
X0613474Y0185354D01*
X0613464Y0185507D01*
X0613458Y0185661D01*
X0613456Y0185814D01*
X0613456Y0067703D02*
X0613458Y0067856D01*
X0613464Y0068010D01*
X0613474Y0068163D01*
X0613488Y0068315D01*
X0613506Y0068468D01*
X0613528Y0068619D01*
X0613553Y0068770D01*
X0613583Y0068921D01*
X0613617Y0069071D01*
X0613654Y0069219D01*
X0613695Y0069367D01*
X0613740Y0069513D01*
X0613789Y0069659D01*
X0613842Y0069803D01*
X0613898Y0069945D01*
X0613958Y0070086D01*
X0614022Y0070226D01*
X0614089Y0070364D01*
X0614160Y0070500D01*
X0614235Y0070634D01*
X0614312Y0070766D01*
X0614394Y0070896D01*
X0614478Y0071024D01*
X0614566Y0071150D01*
X0614657Y0071273D01*
X0614751Y0071394D01*
X0614849Y0071512D01*
X0614949Y0071628D01*
X0615053Y0071741D01*
X0615159Y0071852D01*
X0615268Y0071960D01*
X0615380Y0072065D01*
X0615494Y0072166D01*
X0615612Y0072265D01*
X0615731Y0072361D01*
X0615853Y0072454D01*
X0615978Y0072543D01*
X0616105Y0072630D01*
X0616234Y0072712D01*
X0616365Y0072792D01*
X0616498Y0072868D01*
X0616633Y0072941D01*
X0616770Y0073010D01*
X0616909Y0073075D01*
X0617049Y0073137D01*
X0617191Y0073195D01*
X0617334Y0073250D01*
X0617479Y0073301D01*
X0617625Y0073348D01*
X0617772Y0073391D01*
X0617920Y0073430D01*
X0618069Y0073466D01*
X0618219Y0073497D01*
X0618370Y0073525D01*
X0618521Y0073549D01*
X0618674Y0073569D01*
X0618826Y0073585D01*
X0618979Y0073597D01*
X0619132Y0073605D01*
X0619285Y0073609D01*
X0619439Y0073609D01*
X0619592Y0073605D01*
X0619745Y0073597D01*
X0619898Y0073585D01*
X0620050Y0073569D01*
X0620203Y0073549D01*
X0620354Y0073525D01*
X0620505Y0073497D01*
X0620655Y0073466D01*
X0620804Y0073430D01*
X0620952Y0073391D01*
X0621099Y0073348D01*
X0621245Y0073301D01*
X0621390Y0073250D01*
X0621533Y0073195D01*
X0621675Y0073137D01*
X0621815Y0073075D01*
X0621954Y0073010D01*
X0622091Y0072941D01*
X0622226Y0072868D01*
X0622359Y0072792D01*
X0622490Y0072712D01*
X0622619Y0072630D01*
X0622746Y0072543D01*
X0622871Y0072454D01*
X0622993Y0072361D01*
X0623112Y0072265D01*
X0623230Y0072166D01*
X0623344Y0072065D01*
X0623456Y0071960D01*
X0623565Y0071852D01*
X0623671Y0071741D01*
X0623775Y0071628D01*
X0623875Y0071512D01*
X0623973Y0071394D01*
X0624067Y0071273D01*
X0624158Y0071150D01*
X0624246Y0071024D01*
X0624330Y0070896D01*
X0624412Y0070766D01*
X0624489Y0070634D01*
X0624564Y0070500D01*
X0624635Y0070364D01*
X0624702Y0070226D01*
X0624766Y0070086D01*
X0624826Y0069945D01*
X0624882Y0069803D01*
X0624935Y0069659D01*
X0624984Y0069513D01*
X0625029Y0069367D01*
X0625070Y0069219D01*
X0625107Y0069071D01*
X0625141Y0068921D01*
X0625171Y0068770D01*
X0625196Y0068619D01*
X0625218Y0068468D01*
X0625236Y0068315D01*
X0625250Y0068163D01*
X0625260Y0068010D01*
X0625266Y0067856D01*
X0625268Y0067703D01*
X0625266Y0067550D01*
X0625260Y0067396D01*
X0625250Y0067243D01*
X0625236Y0067091D01*
X0625218Y0066938D01*
X0625196Y0066787D01*
X0625171Y0066636D01*
X0625141Y0066485D01*
X0625107Y0066335D01*
X0625070Y0066187D01*
X0625029Y0066039D01*
X0624984Y0065893D01*
X0624935Y0065747D01*
X0624882Y0065603D01*
X0624826Y0065461D01*
X0624766Y0065320D01*
X0624702Y0065180D01*
X0624635Y0065042D01*
X0624564Y0064906D01*
X0624489Y0064772D01*
X0624412Y0064640D01*
X0624330Y0064510D01*
X0624246Y0064382D01*
X0624158Y0064256D01*
X0624067Y0064133D01*
X0623973Y0064012D01*
X0623875Y0063894D01*
X0623775Y0063778D01*
X0623671Y0063665D01*
X0623565Y0063554D01*
X0623456Y0063446D01*
X0623344Y0063341D01*
X0623230Y0063240D01*
X0623112Y0063141D01*
X0622993Y0063045D01*
X0622871Y0062952D01*
X0622746Y0062863D01*
X0622619Y0062776D01*
X0622490Y0062694D01*
X0622359Y0062614D01*
X0622226Y0062538D01*
X0622091Y0062465D01*
X0621954Y0062396D01*
X0621815Y0062331D01*
X0621675Y0062269D01*
X0621533Y0062211D01*
X0621390Y0062156D01*
X0621245Y0062105D01*
X0621099Y0062058D01*
X0620952Y0062015D01*
X0620804Y0061976D01*
X0620655Y0061940D01*
X0620505Y0061909D01*
X0620354Y0061881D01*
X0620203Y0061857D01*
X0620050Y0061837D01*
X0619898Y0061821D01*
X0619745Y0061809D01*
X0619592Y0061801D01*
X0619439Y0061797D01*
X0619285Y0061797D01*
X0619132Y0061801D01*
X0618979Y0061809D01*
X0618826Y0061821D01*
X0618674Y0061837D01*
X0618521Y0061857D01*
X0618370Y0061881D01*
X0618219Y0061909D01*
X0618069Y0061940D01*
X0617920Y0061976D01*
X0617772Y0062015D01*
X0617625Y0062058D01*
X0617479Y0062105D01*
X0617334Y0062156D01*
X0617191Y0062211D01*
X0617049Y0062269D01*
X0616909Y0062331D01*
X0616770Y0062396D01*
X0616633Y0062465D01*
X0616498Y0062538D01*
X0616365Y0062614D01*
X0616234Y0062694D01*
X0616105Y0062776D01*
X0615978Y0062863D01*
X0615853Y0062952D01*
X0615731Y0063045D01*
X0615612Y0063141D01*
X0615494Y0063240D01*
X0615380Y0063341D01*
X0615268Y0063446D01*
X0615159Y0063554D01*
X0615053Y0063665D01*
X0614949Y0063778D01*
X0614849Y0063894D01*
X0614751Y0064012D01*
X0614657Y0064133D01*
X0614566Y0064256D01*
X0614478Y0064382D01*
X0614394Y0064510D01*
X0614312Y0064640D01*
X0614235Y0064772D01*
X0614160Y0064906D01*
X0614089Y0065042D01*
X0614022Y0065180D01*
X0613958Y0065320D01*
X0613898Y0065461D01*
X0613842Y0065603D01*
X0613789Y0065747D01*
X0613740Y0065893D01*
X0613695Y0066039D01*
X0613654Y0066187D01*
X0613617Y0066335D01*
X0613583Y0066485D01*
X0613553Y0066636D01*
X0613528Y0066787D01*
X0613506Y0066938D01*
X0613488Y0067091D01*
X0613474Y0067243D01*
X0613464Y0067396D01*
X0613458Y0067550D01*
X0613456Y0067703D01*
M02*
