%
M48
M72
T01C0.0130
T02C0.0320
T03C0.0350
T04C0.0354
T05C0.0400
T06C0.0433
T07C0.0472
T08C0.0550
T09C0.0827
T10C0.1181
%
T01
X28800Y11800
X29300Y12550
X31175Y9550
X31800Y7300
X32800Y7050
X36800Y8800
X37800Y9925
X38550Y7550
X44925Y13300
X45050Y15300
X43300Y16550
X44050Y17050
X44550Y17300
X26800Y15925
X25800Y15550
T02
X18300Y15800
X17300Y15800
X36300Y15800
X36300Y16800
X39300Y16800
X39300Y15800
X39300Y14800
X39300Y13800
X36300Y13800
X36300Y14800
X46800Y13800
X47800Y13800
X51800Y13800
X52800Y13800
X56800Y13800
X57800Y13800
T03
X11300Y14800
X10300Y14800
X9300Y14800
X6300Y11800
X6300Y10800
X6300Y9800
T04
X13300Y9550
X15300Y9550
X15300Y12050
X13300Y12050
T05
X22500Y17600
X23500Y17600
X45800Y15300
X45800Y14300
X48910Y11580
X50690Y11580
X53910Y11580
X55690Y11580
X58910Y11580
X60690Y11580
X60690Y9020
X58910Y9020
X55690Y9020
X53910Y9020
X50690Y9020
X48910Y9020
X48800Y5300
X47800Y5300
X46800Y5300
X45800Y5300
X44800Y5300
X43800Y5300
X42800Y5300
X41800Y5300
X40800Y5300
X39800Y5300
X38800Y5300
X37800Y5300
X36800Y5300
X35800Y5300
X34800Y5300
X33800Y5300
X32800Y5300
X31800Y5300
X30800Y5300
X29800Y5300
X28800Y5300
X27800Y5300
X26800Y5300
X25800Y5300
X24800Y5300
X23800Y5300
X22800Y5300
X49800Y5300
X50800Y5300
X51800Y5300
X52800Y5300
X53800Y5300
X54800Y5300
X55800Y5300
X56800Y5300
X57800Y5300
X58800Y5300
X59800Y5300
X60800Y5300
X61800Y5300
T06
X43784Y8044
X42800Y8044
X41816Y8044
X33284Y8044
X32300Y8044
X31316Y8044
X22784Y8044
X21800Y8044
X20816Y8044
X11284Y8044
X10300Y8044
X9316Y8044
X24816Y18544
X25800Y18544
X26784Y18544
X34816Y18544
X35800Y18544
X36784Y18544
X42316Y18544
X43300Y18544
X44284Y18544
T07
X48816Y12761
X50784Y12761
X53816Y12761
X55784Y12761
X58816Y12761
X60784Y12761
X60784Y7839
X58816Y7839
X55784Y7839
X53816Y7839
X50784Y7839
X48816Y7839
T08
X7675Y7800
X12925Y7800
X12925Y13800
X7675Y13800
T09
X8528Y10800
X12072Y10800
X20028Y10800
X23572Y10800
X30528Y10800
X34072Y10800
X41028Y10800
X44572Y10800
X45072Y21300
X41528Y21300
X37572Y21300
X34028Y21300
X27572Y21300
X24028Y21300
T10
X3678Y20548
X3678Y8737
X63914Y8737
X63914Y20548
M30
